<svg xmlns="http://www.w3.org/2000/svg" width="420" height="900" viewBox="0 0 420 900"><defs><filter id="b" filterUnits="userSpaceOnUse" x="-200" y="-200" width="820" height="1300"><feGaussianBlur stdDeviation="26"/></filter><filter id="s" filterUnits="userSpaceOnUse" x="-200" y="-200" width="820" height="1300"><feGaussianBlur stdDeviation="8"/></filter></defs><rect width="420" height="900" fill="#0e1424"/><path d="M-40 160 C 80 60, 160 260, 260 150 S 400 60, 470 180" fill="none" stroke="#3ee0a8" stroke-opacity="0.7" stroke-width="90" stroke-linecap="round" filter="url(#b)"/><path d="M-40 160 C 80 60, 160 260, 260 150 S 400 60, 470 180" fill="none" stroke="#3ee0a8" stroke-opacity="0.6" stroke-width="19.8" stroke-linecap="round" filter="url(#s)"/><path d="M-40 300 C 90 220, 200 380, 300 260 S 420 230, 470 320" fill="none" stroke="#7a6bff" stroke-opacity="0.55" stroke-width="70" stroke-linecap="round" filter="url(#b)"/><path d="M-40 300 C 90 220, 200 380, 300 260 S 420 230, 470 320" fill="none" stroke="#7a6bff" stroke-opacity="0.4" stroke-width="15.4" stroke-linecap="round" filter="url(#s)"/><path d="M-40 560 C 60 480, 220 640, 320 520 S 430 520, 470 600" fill="none" stroke="#ff6fa8" stroke-opacity="0.45" stroke-width="110" stroke-linecap="round" filter="url(#b)"/><path d="M-40 560 C 60 480, 220 640, 320 520 S 430 520, 470 600" fill="none" stroke="#ff6fa8" stroke-opacity="0.4" stroke-width="24.2" stroke-linecap="round" filter="url(#s)"/><path d="M-40 780 C 100 720, 180 860, 300 760 S 420 740, 470 820" fill="none" stroke="#3ee0a8" stroke-opacity="0.35" stroke-width="80" stroke-linecap="round" filter="url(#b)"/><path d="M-40 780 C 100 720, 180 860, 300 760 S 420 740, 470 820" fill="none" stroke="#3ee0a8" stroke-opacity="0.3" stroke-width="17.6" stroke-linecap="round" filter="url(#s)"/><circle cx="59.5" cy="739.5" r="0.9" fill="#ffffff" fill-opacity="0.8"/><circle cx="386.2" cy="117.8" r="0.6" fill="#ffffff" fill-opacity="0.7"/><circle cx="119" cy="844" r="0.8" fill="#ffffff" fill-opacity="0.5"/><circle cx="154.1" cy="482" r="0.8" fill="#ffffff" fill-opacity="0.9"/><circle cx="366.9" cy="170.8" r="0.7" fill="#ffffff" fill-opacity="0.8"/><circle cx="368.1" cy="184.1" r="0.4" fill="#ffffff" fill-opacity="0.7"/><circle cx="350.4" cy="633.4" r="0.4" fill="#ffffff" fill-opacity="0.5"/><circle cx="130.1" cy="592.9" r="0.7" fill="#ffffff" fill-opacity="0.5"/><circle cx="238.5" cy="144.1" r="1" fill="#ffffff" fill-opacity="0.7"/><circle cx="335.9" cy="519.4" r="0.7" fill="#ffffff" fill-opacity="0.7"/><circle cx="208.7" cy="161.8" r="0.8" fill="#ffffff" fill-opacity="0.9"/><circle cx="232.3" cy="591.1" r="0.8" fill="#ffffff" fill-opacity="0.9"/><circle cx="307.3" cy="85.5" r="1" fill="#ffffff" fill-opacity="0.7"/><circle cx="308.5" cy="814.4" r="1" fill="#ffffff" fill-opacity="0.8"/><circle cx="402" cy="110.4" r="0.8" fill="#ffffff" fill-opacity="0.9"/><circle cx="145.3" cy="692.2" r="0.9" fill="#ffffff" fill-opacity="0.5"/><circle cx="29.2" cy="525.2" r="0.9" fill="#ffffff" fill-opacity="0.7"/><circle cx="119.2" cy="439.2" r="0.7" fill="#ffffff" fill-opacity="0.5"/><circle cx="240" cy="849" r="0.8" fill="#ffffff" fill-opacity="0.9"/><circle cx="250.2" cy="616.8" r="0.5" fill="#ffffff" fill-opacity="0.5"/><circle cx="269.8" cy="2.4" r="0.9" fill="#ffffff" fill-opacity="0.6"/><circle cx="46.9" cy="158.9" r="0.5" fill="#ffffff" fill-opacity="0.5"/><circle cx="61.6" cy="769.8" r="0.9" fill="#ffffff" fill-opacity="0.8"/><circle cx="398.2" cy="478.1" r="0.6" fill="#ffffff" fill-opacity="0.9"/><circle cx="106.2" cy="828.6" r="0.7" fill="#ffffff" fill-opacity="0.9"/><circle cx="145.2" cy="811.7" r="0.6" fill="#ffffff" fill-opacity="0.6"/><circle cx="310" cy="497.1" r="0.9" fill="#ffffff" fill-opacity="0.8"/><circle cx="396.1" cy="788.9" r="0.4" fill="#ffffff" fill-opacity="0.9"/><circle cx="327.1" cy="782.4" r="0.9" fill="#ffffff" fill-opacity="0.6"/><circle cx="68.6" cy="358.5" r="0.9" fill="#ffffff" fill-opacity="0.7"/><circle cx="16.2" cy="459.1" r="0.9" fill="#ffffff" fill-opacity="0.4"/><circle cx="279" cy="566.4" r="0.6" fill="#ffffff" fill-opacity="0.5"/><circle cx="132.5" cy="804" r="0.8" fill="#ffffff" fill-opacity="0.4"/><circle cx="7.6" cy="118" r="0.8" fill="#ffffff" fill-opacity="0.5"/><circle cx="193.9" cy="162.3" r="1" fill="#ffffff" fill-opacity="0.6"/><circle cx="398.9" cy="425.8" r="0.9" fill="#ffffff" fill-opacity="0.9"/><circle cx="35.2" cy="181.8" r="0.5" fill="#ffffff" fill-opacity="0.7"/><circle cx="171.2" cy="552.3" r="0.8" fill="#ffffff" fill-opacity="0.8"/><circle cx="412.8" cy="776.1" r="0.6" fill="#ffffff" fill-opacity="0.5"/><circle cx="250.9" cy="153.1" r="0.4" fill="#ffffff" fill-opacity="0.7"/><circle cx="202.9" cy="457.5" r="0.8" fill="#ffffff" fill-opacity="0.9"/><circle cx="89.2" cy="838.9" r="0.6" fill="#ffffff" fill-opacity="0.8"/><circle cx="70.4" cy="563.5" r="1" fill="#ffffff" fill-opacity="0.4"/><circle cx="335.6" cy="45.6" r="0.8" fill="#ffffff" fill-opacity="0.9"/><circle cx="75.9" cy="38.8" r="0.9" fill="#ffffff" fill-opacity="0.6"/><circle cx="101.3" cy="892.9" r="0.9" fill="#ffffff" fill-opacity="0.5"/><circle cx="311.4" cy="56.3" r="0.8" fill="#ffffff" fill-opacity="0.8"/><circle cx="144.4" cy="649.3" r="0.7" fill="#ffffff" fill-opacity="0.8"/><circle cx="306.7" cy="166.2" r="0.9" fill="#ffffff" fill-opacity="0.6"/><circle cx="283.8" cy="708.3" r="0.6" fill="#ffffff" fill-opacity="0.4"/><circle cx="254.7" cy="890.5" r="0.6" fill="#ffffff" fill-opacity="0.9"/><circle cx="336.2" cy="435.2" r="1.3" fill="#ffffff" fill-opacity="0.5"/><circle cx="112.9" cy="665.5" r="0.7" fill="#ffffff" fill-opacity="0.9"/><circle cx="210.8" cy="263.4" r="0.9" fill="#ffffff" fill-opacity="0.5"/><circle cx="159.6" cy="841.6" r="0.6" fill="#ffffff" fill-opacity="0.4"/><circle cx="142.3" cy="111.4" r="0.6" fill="#ffffff" fill-opacity="0.4"/><circle cx="224.6" cy="487.9" r="0.7" fill="#ffffff" fill-opacity="0.7"/><circle cx="87.8" cy="370.5" r="0.8" fill="#ffffff" fill-opacity="0.5"/><circle cx="339.2" cy="561.3" r="0.7" fill="#ffffff" fill-opacity="0.9"/><circle cx="358.1" cy="125.6" r="1.3" fill="#ffffff" fill-opacity="0.5"/><circle cx="183.9" cy="189.7" r="0.9" fill="#ffffff" fill-opacity="0.4"/><circle cx="232.3" cy="23.7" r="0.9" fill="#ffffff" fill-opacity="0.7"/><circle cx="208" cy="432" r="0.6" fill="#ffffff" fill-opacity="0.9"/><circle cx="43.4" cy="232" r="0.7" fill="#ffffff" fill-opacity="0.7"/><circle cx="387.8" cy="563.3" r="0.6" fill="#ffffff" fill-opacity="0.9"/><circle cx="161" cy="329.4" r="0.8" fill="#ffffff" fill-opacity="0.6"/><circle cx="406.2" cy="253.2" r="0.4" fill="#ffffff" fill-opacity="0.6"/><circle cx="165.1" cy="325.7" r="0.7" fill="#ffffff" fill-opacity="0.9"/><circle cx="163" cy="585.9" r="0.8" fill="#ffffff" fill-opacity="0.5"/><circle cx="182.5" cy="139.5" r="0.7" fill="#ffffff" fill-opacity="0.7"/><circle cx="147" cy="95.6" r="0.6" fill="#ffffff" fill-opacity="0.9"/><circle cx="25.1" cy="897.4" r="0.9" fill="#ffffff" fill-opacity="0.8"/><circle cx="151.5" cy="643.2" r="0.7" fill="#ffffff" fill-opacity="0.6"/><circle cx="19.9" cy="602.7" r="1.6" fill="#ffffff" fill-opacity="0.7"/><circle cx="49" cy="176.3" r="0.4" fill="#ffffff" fill-opacity="0.9"/><circle cx="77.3" cy="419.4" r="0.7" fill="#ffffff" fill-opacity="0.8"/><circle cx="167.1" cy="259.2" r="1" fill="#ffffff" fill-opacity="0.9"/><circle cx="394.1" cy="479.7" r="1" fill="#ffffff" fill-opacity="0.9"/><circle cx="355.3" cy="374.1" r="1" fill="#ffffff" fill-opacity="0.9"/><circle cx="297.1" cy="391.7" r="0.6" fill="#ffffff" fill-opacity="0.8"/><circle cx="87.2" cy="294.7" r="0.7" fill="#ffffff" fill-opacity="0.6"/><circle cx="102.8" cy="714.7" r="0.6" fill="#ffffff" fill-opacity="0.9"/><circle cx="236.6" cy="238.9" r="0.9" fill="#ffffff" fill-opacity="0.6"/><circle cx="60.4" cy="446.7" r="1.3" fill="#ffffff" fill-opacity="0.4"/><circle cx="105.2" cy="109.9" r="0.9" fill="#ffffff" fill-opacity="0.8"/><circle cx="340.6" cy="288.3" r="0.4" fill="#ffffff" fill-opacity="0.4"/><circle cx="329.8" cy="181" r="0.6" fill="#ffffff" fill-opacity="0.8"/><circle cx="217.5" cy="816.5" r="0.6" fill="#ffffff" fill-opacity="0.5"/><circle cx="230" cy="84.6" r="0.4" fill="#ffffff" fill-opacity="0.6"/><circle cx="265" cy="282.5" r="0.9" fill="#ffffff" fill-opacity="0.9"/><circle cx="419.9" cy="585.4" r="0.8" fill="#ffffff" fill-opacity="0.7"/><circle cx="351.2" cy="477.1" r="0.9" fill="#ffffff" fill-opacity="0.6"/><circle cx="228.4" cy="176.1" r="0.7" fill="#ffffff" fill-opacity="0.7"/><circle cx="356" cy="599.3" r="0.9" fill="#ffffff" fill-opacity="0.9"/><circle cx="82.5" cy="298.2" r="0.9" fill="#ffffff" fill-opacity="0.9"/><circle cx="275.9" cy="182.1" r="0.5" fill="#ffffff" fill-opacity="0.6"/><circle cx="244" cy="137.1" r="1" fill="#ffffff" fill-opacity="0.4"/><circle cx="54.8" cy="295.2" r="0.9" fill="#ffffff" fill-opacity="0.8"/><circle cx="202.1" cy="18.3" r="0.6" fill="#ffffff" fill-opacity="0.8"/><circle cx="355.4" cy="41.1" r="0.7" fill="#ffffff" fill-opacity="0.4"/><circle cx="415.3" cy="664" r="0.6" fill="#ffffff" fill-opacity="0.9"/><circle cx="339.6" cy="894.7" r="0.7" fill="#ffffff" fill-opacity="0.5"/><circle cx="312.9" cy="298.3" r="0.6" fill="#ffffff" fill-opacity="0.6"/><circle cx="226.5" cy="245.6" r="0.5" fill="#ffffff" fill-opacity="0.4"/><circle cx="163.9" cy="292.3" r="0.5" fill="#ffffff" fill-opacity="0.4"/><circle cx="270.2" cy="718.1" r="0.8" fill="#ffffff" fill-opacity="0.5"/><circle cx="185.7" cy="777.5" r="0.6" fill="#ffffff" fill-opacity="0.7"/><circle cx="252.1" cy="321.7" r="0.5" fill="#ffffff" fill-opacity="0.7"/><circle cx="303.9" cy="799.6" r="0.4" fill="#ffffff" fill-opacity="0.8"/><circle cx="413.7" cy="114.7" r="0.6" fill="#ffffff" fill-opacity="0.8"/><circle cx="216.2" cy="424.6" r="1.2" fill="#ffffff" fill-opacity="0.5"/><circle cx="311.1" cy="214.9" r="1" fill="#ffffff" fill-opacity="0.5"/><circle cx="45" cy="261.2" r="0.9" fill="#ffffff" fill-opacity="0.5"/><circle cx="283.1" cy="119.7" r="0.6" fill="#ffffff" fill-opacity="0.6"/><circle cx="306.4" cy="4.9" r="0.7" fill="#ffffff" fill-opacity="0.9"/><circle cx="230.8" cy="817.8" r="0.9" fill="#ffffff" fill-opacity="0.9"/><circle cx="160.8" cy="799" r="0.6" fill="#ffffff" fill-opacity="0.9"/><circle cx="348.5" cy="53.3" r="1.1" fill="#ffffff" fill-opacity="0.5"/><circle cx="92.7" cy="358.7" r="0.6" fill="#ffffff" fill-opacity="0.9"/><circle cx="180.1" cy="897.7" r="0.4" fill="#ffffff" fill-opacity="0.9"/><circle cx="188.4" cy="326.3" r="1.3" fill="#ffffff" fill-opacity="0.4"/><circle cx="5.1" cy="855.8" r="0.6" fill="#ffffff" fill-opacity="0.6"/><circle cx="293.3" cy="600.8" r="0.7" fill="#ffffff" fill-opacity="0.4"/><circle cx="366.1" cy="837.5" r="0.6" fill="#ffffff" fill-opacity="0.4"/><circle cx="108" cy="156.5" r="0.7" fill="#ffffff" fill-opacity="0.5"/><circle cx="318.2" cy="469.1" r="0.7" fill="#ffffff" fill-opacity="0.7"/><circle cx="92.1" cy="366.3" r="0.9" fill="#ffffff" fill-opacity="0.4"/><circle cx="100.7" cy="705.1" r="1" fill="#ffffff" fill-opacity="0.6"/><circle cx="352.9" cy="259.4" r="0.5" fill="#ffffff" fill-opacity="0.4"/><circle cx="210" cy="532.1" r="0.4" fill="#ffffff" fill-opacity="0.6"/><circle cx="185.4" cy="487.4" r="0.7" fill="#ffffff" fill-opacity="0.9"/><circle cx="4.3" cy="692.1" r="0.5" fill="#ffffff" fill-opacity="0.6"/><circle cx="404.1" cy="259.6" r="1.7" fill="#ffffff" fill-opacity="0.5"/><circle cx="51.3" cy="893.1" r="0.7" fill="#ffffff" fill-opacity="0.8"/><circle cx="341.5" cy="141" r="0.5" fill="#ffffff" fill-opacity="0.7"/><circle cx="115.5" cy="118.1" r="0.9" fill="#ffffff" fill-opacity="0.4"/><circle cx="40.6" cy="480" r="0.9" fill="#ffffff" fill-opacity="0.7"/><circle cx="68.3" cy="772.9" r="0.6" fill="#ffffff" fill-opacity="0.5"/><circle cx="189.3" cy="465" r="1.1" fill="#ffffff" fill-opacity="0.5"/><circle cx="342.7" cy="82.6" r="0.4" fill="#ffffff" fill-opacity="0.6"/><circle cx="187.7" cy="32.8" r="0.5" fill="#ffffff" fill-opacity="0.5"/><circle cx="80" cy="50.3" r="0.6" fill="#ffffff" fill-opacity="0.7"/><circle cx="58.1" cy="741.3" r="0.8" fill="#ffffff" fill-opacity="0.6"/><circle cx="0.7" cy="333.5" r="0.6" fill="#ffffff" fill-opacity="0.6"/><circle cx="308.6" cy="12.3" r="1.1" fill="#ffffff" fill-opacity="0.9"/><circle cx="342.4" cy="832.6" r="0.7" fill="#ffffff" fill-opacity="0.5"/><circle cx="97.7" cy="151.1" r="1" fill="#ffffff" fill-opacity="0.4"/><circle cx="90.1" cy="652" r="1.3" fill="#ffffff" fill-opacity="0.8"/><circle cx="146.4" cy="708.3" r="0.8" fill="#ffffff" fill-opacity="0.6"/><circle cx="206" cy="28.8" r="0.7" fill="#ffffff" fill-opacity="0.6"/><circle cx="227.5" cy="348.2" r="0.8" fill="#ffffff" fill-opacity="0.4"/><circle cx="303.8" cy="214.2" r="0.9" fill="#ffffff" fill-opacity="0.8"/><circle cx="141.4" cy="310" r="0.4" fill="#ffffff" fill-opacity="0.7"/><circle cx="365.2" cy="122.5" r="0.8" fill="#ffffff" fill-opacity="0.7"/><circle cx="323.7" cy="656.3" r="0.6" fill="#ffffff" fill-opacity="0.5"/><circle cx="95.7" cy="189.3" r="0.4" fill="#ffffff" fill-opacity="0.6"/><circle cx="78.5" cy="499.5" r="1" fill="#ffffff" fill-opacity="0.4"/><circle cx="311.5" cy="516.9" r="0.5" fill="#ffffff" fill-opacity="0.6"/><circle cx="320.3" cy="493.6" r="0.8" fill="#ffffff" fill-opacity="0.8"/><circle cx="13.2" cy="788.2" r="0.5" fill="#ffffff" fill-opacity="0.5"/><circle cx="130.2" cy="601.9" r="0.7" fill="#ffffff" fill-opacity="0.7"/><circle cx="400.4" cy="673.1" r="1" fill="#ffffff" fill-opacity="0.4"/><circle cx="386.2" cy="228.2" r="0.5" fill="#ffffff" fill-opacity="0.5"/><circle cx="76.8" cy="541.7" r="1.6" fill="#ffffff" fill-opacity="0.5"/><circle cx="310.4" cy="96.3" r="0.5" fill="#ffffff" fill-opacity="0.4"/><circle cx="381.5" cy="830.3" r="0.7" fill="#ffffff" fill-opacity="0.4"/><circle cx="210.9" cy="857.8" r="0.9" fill="#ffffff" fill-opacity="0.9"/><circle cx="100.5" cy="695.2" r="0.6" fill="#ffffff" fill-opacity="0.5"/><circle cx="9.5" cy="652" r="0.7" fill="#ffffff" fill-opacity="0.4"/><circle cx="300.2" cy="392.1" r="0.5" fill="#ffffff" fill-opacity="0.7"/><circle cx="362.2" cy="700.3" r="0.6" fill="#ffffff" fill-opacity="0.6"/><circle cx="178.3" cy="88.2" r="1" fill="#ffffff" fill-opacity="0.5"/><circle cx="271.3" cy="548.3" r="0.9" fill="#ffffff" fill-opacity="0.7"/><circle cx="280.7" cy="477.3" r="0.5" fill="#ffffff" fill-opacity="0.7"/><circle cx="225.4" cy="135.2" r="0.9" fill="#ffffff" fill-opacity="0.8"/><circle cx="142.8" cy="573.6" r="0.5" fill="#ffffff" fill-opacity="0.7"/><circle cx="347.7" cy="741.6" r="0.6" fill="#ffffff" fill-opacity="0.9"/><circle cx="344.1" cy="553.6" r="0.7" fill="#ffffff" fill-opacity="0.4"/><circle cx="208.2" cy="160.8" r="1" fill="#ffffff" fill-opacity="0.8"/><circle cx="372.7" cy="389.6" r="0.6" fill="#ffffff" fill-opacity="0.4"/><circle cx="267.1" cy="382.7" r="0.8" fill="#ffffff" fill-opacity="0.8"/><circle cx="71.4" cy="109.8" r="1.3" fill="#ffffff" fill-opacity="0.7"/><circle cx="371.6" cy="540" r="0.5" fill="#ffffff" fill-opacity="0.4"/><circle cx="367.2" cy="627.7" r="0.8" fill="#ffffff" fill-opacity="0.8"/><circle cx="236.9" cy="523.2" r="0.7" fill="#ffffff" fill-opacity="0.7"/><circle cx="355.1" cy="406.3" r="0.6" fill="#ffffff" fill-opacity="0.9"/><circle cx="55.1" cy="307.7" r="0.7" fill="#ffffff" fill-opacity="0.8"/><circle cx="367.4" cy="729.2" r="0.6" fill="#ffffff" fill-opacity="0.6"/><circle cx="382.1" cy="79.6" r="0.9" fill="#ffffff" fill-opacity="0.6"/><circle cx="92.4" cy="177.2" r="1.4" fill="#ffffff" fill-opacity="0.4"/><circle cx="208.1" cy="31.7" r="0.5" fill="#ffffff" fill-opacity="0.9"/><circle cx="409.9" cy="511" r="0.9" fill="#ffffff" fill-opacity="0.4"/><circle cx="287.9" cy="534" r="0.6" fill="#ffffff" fill-opacity="0.5"/><circle cx="163.9" cy="83.1" r="0.8" fill="#ffffff" fill-opacity="0.8"/><circle cx="416.3" cy="188.5" r="0.6" fill="#ffffff" fill-opacity="0.5"/><circle cx="175.2" cy="464.8" r="0.6" fill="#ffffff" fill-opacity="0.7"/><circle cx="292.9" cy="893.8" r="0.8" fill="#ffffff" fill-opacity="0.6"/><circle cx="331" cy="702.1" r="0.5" fill="#ffffff" fill-opacity="0.6"/><circle cx="36.8" cy="389.1" r="0.7" fill="#ffffff" fill-opacity="0.7"/><circle cx="213.3" cy="85.3" r="0.9" fill="#ffffff" fill-opacity="0.6"/><circle cx="321.8" cy="224.2" r="0.9" fill="#ffffff" fill-opacity="0.4"/><circle cx="80.7" cy="712.1" r="0.6" fill="#ffffff" fill-opacity="0.4"/><circle cx="4.7" cy="718.3" r="0.8" fill="#ffffff" fill-opacity="0.9"/><circle cx="297.3" cy="282" r="0.5" fill="#ffffff" fill-opacity="0.6"/><circle cx="220.9" cy="178" r="0.8" fill="#ffffff" fill-opacity="0.9"/><circle cx="49.6" cy="669" r="0.6" fill="#ffffff" fill-opacity="0.6"/><circle cx="130.8" cy="729.5" r="0.7" fill="#ffffff" fill-opacity="0.4"/><circle cx="8.6" cy="521.3" r="0.8" fill="#ffffff" fill-opacity="0.6"/><circle cx="89.4" cy="443.6" r="0.5" fill="#ffffff" fill-opacity="0.5"/><circle cx="210.4" cy="618.8" r="0.4" fill="#ffffff" fill-opacity="0.4"/><circle cx="395.6" cy="662.4" r="0.6" fill="#ffffff" fill-opacity="0.6"/><circle cx="403.8" cy="24.4" r="0.7" fill="#ffffff" fill-opacity="0.7"/><circle cx="203.6" cy="850.3" r="0.5" fill="#ffffff" fill-opacity="0.8"/><circle cx="151.2" cy="566.5" r="0.8" fill="#ffffff" fill-opacity="0.5"/><circle cx="304" cy="320.6" r="0.9" fill="#ffffff" fill-opacity="0.6"/><circle cx="271.7" cy="646.7" r="0.8" fill="#ffffff" fill-opacity="0.6"/><circle cx="404.1" cy="710.5" r="1" fill="#ffffff" fill-opacity="0.9"/><circle cx="5.6" cy="413.9" r="0.8" fill="#ffffff" fill-opacity="0.7"/><circle cx="60.4" cy="518.5" r="1.1" fill="#ffffff" fill-opacity="0.5"/><circle cx="207.5" cy="301.3" r="0.8" fill="#ffffff" fill-opacity="0.8"/></svg>