<svg xmlns="http://www.w3.org/2000/svg" width="800" height="1200" viewBox="0 0 800 1200"><defs><g id="art"><path d="M11.35 23.97a4.02 4.02 0 1 1 -8.03 0a4.02 4.02 0 1 1 8.03 0" fill="#759386"/><path d="M142.79 32.05a4.07 4.07 0 1 1 -8.13 0a4.07 4.07 0 1 1 8.13 0M258.14 15.23a5.39 5.39 0 1 1 -10.77 0a5.39 5.39 0 1 1 10.77 0" fill="#ae493a"/><path d="M359.36 16.25a5.5 5.5 0 1 1 -11 0a5.5 5.5 0 1 1 11 0M467.39 24.7a4.29 4.29 0 1 1 -8.58 0a4.29 4.29 0 1 1 8.58 0M601.81 13.05a5.55 5.55 0 1 1 -11.11 0a5.55 5.55 0 1 1 11.11 0" fill="#537c91"/><path d="M697.65 30.1a4.72 4.72 0 1 1 -9.44 0a4.72 4.72 0 1 1 9.44 0M67.65 148.14a4.17 4.17 0 1 1 -8.34 0a4.17 4.17 0 1 1 8.34 0" fill="#759386"/><path d="M181.85 141.3a5.47 5.47 0 1 1 -10.94 0a5.47 5.47 0 1 1 10.94 0" fill="#ae493a"/><path d="M295.21 134.35a4.79 4.79 0 1 1 -9.59 0a4.79 4.79 0 1 1 9.59 0" fill="#cfb887"/><path d="M421.82 143.6a4.34 4.34 0 1 1 -8.68 0a4.34 4.34 0 1 1 8.68 0M538.96 145.68a5.11 5.11 0 1 1 -10.23 0a5.11 5.11 0 1 1 10.23 0" fill="#ae493a"/><path d="M658.5 137.91a5.41 5.41 0 1 1 -10.83 0a5.41 5.41 0 1 1 10.83 0" fill="#759386"/><path d="M756.77 144.33a4.13 4.13 0 1 1 -8.26 0a4.13 4.13 0 1 1 8.26 0" fill="#cfb887"/><path d="M25.46 266.61a3.9 3.9 0 1 1 -7.81 0a3.9 3.9 0 1 1 7.81 0" fill="#537c91"/><path d="M135.79 263.33a4.02 4.02 0 1 1 -8.04 0a4.02 4.02 0 1 1 8.04 0" fill="#759386"/><path d="M240.07 246.25a5.49 5.49 0 1 1 -10.98 0a5.49 5.49 0 1 1 10.98 0" fill="#537c91"/><path d="M360.61 264.17a4.41 4.41 0 1 1 -8.81 0a4.41 4.41 0 1 1 8.81 0" fill="#ae493a"/><path d="M478.19 262.03a4.5 4.5 0 1 1 -8.99 0a4.5 4.5 0 1 1 8.99 0" fill="#759386"/><path d="M590.44 267.37a4.93 4.93 0 1 1 -9.85 0a4.93 4.93 0 1 1 9.85 0" fill="#cfb887"/><path d="M708.36 250.25a5.33 5.33 0 1 1 -10.66 0a5.33 5.33 0 1 1 10.66 0" fill="#ae493a"/><path d="M75.81 390.67a4.16 4.16 0 1 1 -8.32 0a4.16 4.16 0 1 1 8.32 0" fill="#537c91"/><path d="M198.14 377.53a4.37 4.37 0 1 1 -8.74 0a4.37 4.37 0 1 1 8.74 0" fill="#cfb887"/><path d="M300.56 365.45a5.2 5.2 0 1 1 -10.4 0a5.2 5.2 0 1 1 10.4 0M424.51 365.96a4.71 4.71 0 1 1 -9.41 0a4.71 4.71 0 1 1 9.41 0" fill="#ae493a"/><path d="M535.62 374.74a4.33 4.33 0 1 1 -8.66 0a4.33 4.33 0 1 1 8.66 0" fill="#759386"/><path d="M658.59 383.94a5.69 5.69 0 1 1 -11.39 0a5.69 5.69 0 1 1 11.39 0M762.39 366.53a4.93 4.93 0 1 1 -9.85 0a4.93 4.93 0 1 1 9.85 0" fill="#ae493a"/><path d="M18.77 510.93a4.61 4.61 0 1 1 -9.22 0a4.61 4.61 0 1 1 9.22 0" fill="#cfb887"/><path d="M132.72 493.59a4.41 4.41 0 1 1 -8.82 0a4.41 4.41 0 1 1 8.82 0" fill="#537c91"/><path d="M248.9 501.88a5.69 5.69 0 1 1 -11.38 0a5.69 5.69 0 1 1 11.38 0M373.56 513.62a3.89 3.89 0 1 1 -7.77 0a3.89 3.89 0 1 1 7.77 0" fill="#ae493a"/><path d="M480.81 500.21a4.39 4.39 0 1 1 -8.79 0a4.39 4.39 0 1 1 8.79 0" fill="#759386"/><path d="M593.29 492.99a4.88 4.88 0 1 1 -9.75 0a4.88 4.88 0 1 1 9.75 0" fill="#cfb887"/><path d="M700.93 514.54a3.9 3.9 0 1 1 -7.79 0a3.9 3.9 0 1 1 7.79 0" fill="#537c91"/><path d="M66.88 616.38a3.81 3.81 0 1 1 -7.62 0a3.81 3.81 0 1 1 7.62 0" fill="#759386"/><path d="M187.09 614.83a5.76 5.76 0 1 1 -11.53 0a5.76 5.76 0 1 1 11.53 0" fill="#537c91"/><path d="M294.28 613.29a5.55 5.55 0 1 1 -11.11 0a5.55 5.55 0 1 1 11.11 0" fill="#cfb887"/><path d="M414.35 608.31a4.8 4.8 0 1 1 -9.59 0a4.8 4.8 0 1 1 9.59 0" fill="#759386"/><path d="M532.98 605.78a5.64 5.64 0 1 1 -11.28 0a5.64 5.64 0 1 1 11.28 0M656.81 607.64a5.29 5.29 0 1 1 -10.58 0a5.29 5.29 0 1 1 10.58 0" fill="#cfb887"/><path d="M763.66 609.35a4.4 4.4 0 1 1 -8.8 0a4.4 4.4 0 1 1 8.8 0" fill="#537c91"/><path d="M27.06 740.96a5.58 5.58 0 1 1 -11.16 0a5.58 5.58 0 1 1 11.16 0M139.03 732.48a5.49 5.49 0 1 1 -10.98 0a5.49 5.49 0 1 1 10.98 0" fill="#cfb887"/><path d="M237.88 739.67a5.1 5.1 0 1 1 -10.2 0a5.1 5.1 0 1 1 10.2 0" fill="#537c91"/><path d="M359 725.46a5.47 5.47 0 1 1 -10.93 0a5.47 5.47 0 1 1 10.93 0" fill="#ae493a"/><path d="M476.6 740.19a4.93 4.93 0 1 1 -9.86 0a4.93 4.93 0 1 1 9.86 0M584.14 752.17a3.98 3.98 0 1 1 -7.96 0a3.98 3.98 0 1 1 7.96 0M696.14 737.11a4.68 4.68 0 1 1 -9.36 0a4.68 4.68 0 1 1 9.36 0" fill="#537c91"/><path d="M78.14 855.49a4.53 4.53 0 1 1 -9.05 0a4.53 4.53 0 1 1 9.05 0" fill="#ae493a"/><path d="M200.77 867.3a5.48 5.48 0 1 1 -10.96 0a5.48 5.48 0 1 1 10.96 0M304.81 859.71a5.05 5.05 0 1 1 -10.09 0a5.05 5.05 0 1 1 10.09 0" fill="#759386"/><path d="M428.13 873.52a5.48 5.48 0 1 1 -10.96 0a5.48 5.48 0 1 1 10.96 0" fill="#cfb887"/><path d="M534.64 872.21a5.51 5.51 0 1 1 -11.02 0a5.51 5.51 0 1 1 11.02 0" fill="#759386"/><path d="M643.56 852.03a4.67 4.67 0 1 1 -9.34 0a4.67 4.67 0 1 1 9.34 0M760.69 846.53a4.33 4.33 0 1 1 -8.65 0a4.33 4.33 0 1 1 8.65 0" fill="#537c91"/><path d="M17.36 985.11a4.69 4.69 0 1 1 -9.39 0a4.69 4.69 0 1 1 9.39 0" fill="#cfb887"/><path d="M128.98 989.27a5.19 5.19 0 1 1 -10.37 0a5.19 5.19 0 1 1 10.37 0" fill="#759386"/><path d="M237.53 990.28a4.76 4.76 0 1 1 -9.52 0a4.76 4.76 0 1 1 9.52 0" fill="#ae493a"/><path d="M365.76 979.33a4.1 4.1 0 1 1 -8.19 0a4.1 4.1 0 1 1 8.19 0M484.78 968.68a4.7 4.7 0 1 1 -9.4 0a4.7 4.7 0 1 1 9.4 0" fill="#cfb887"/><path d="M585.55 970.77a4.77 4.77 0 1 1 -9.55 0a4.77 4.77 0 1 1 9.55 0" fill="#ae493a"/><path d="M717.3 982.87a5.2 5.2 0 1 1 -10.41 0a5.2 5.2 0 1 1 10.41 0" fill="#cfb887"/><path d="M67.5 1097.81a5.06 5.06 0 1 1 -10.12 0a5.06 5.06 0 1 1 10.12 0" fill="#ae493a"/><path d="M196.1 1090.71a5.13 5.13 0 1 1 -10.26 0a5.13 5.13 0 1 1 10.26 0" fill="#cfb887"/><path d="M310.21 1109.59a5.02 5.02 0 1 1 -10.05 0a5.02 5.02 0 1 1 10.05 0" fill="#537c91"/><path d="M430.82 1103.96a4.98 4.98 0 1 1 -9.96 0a4.98 4.98 0 1 1 9.96 0M535.24 1092.31a4.2 4.2 0 1 1 -8.41 0a4.2 4.2 0 1 1 8.41 0" fill="#759386"/><path d="M647.79 1088.78a4.33 4.33 0 1 1 -8.66 0a4.33 4.33 0 1 1 8.66 0" fill="#ae493a"/><path d="M774.63 1096.32a4.84 4.84 0 1 1 -9.68 0a4.84 4.84 0 1 1 9.68 0" fill="#cfb887"/><path d="M772.38 37.88L773.08 37.88L773.08 38.58L772.38 38.58ZM537.76 764.74L538.46 764.74L538.46 765.44L537.76 765.44ZM601.74 234.66L602.44 234.66L602.44 235.36L601.74 235.36ZM348.59 1008.31L349.29 1008.31L349.29 1009.01L348.59 1009.01ZM674.8 107.52L675.5 107.52L675.5 108.22L674.8 108.22ZM780.16 713.71L780.86 713.71L780.86 714.41L780.16 714.41ZM20.78 1093.77L21.48 1093.77L21.48 1094.47L20.78 1094.47ZM796.81 206.39L797.51 206.39L797.51 207.09L796.81 207.09ZM222.54 399.68L223.24 399.68L223.24 400.38L222.54 400.38ZM398.06 284.91L398.76 284.91L398.76 285.61L398.06 285.61ZM628.32 931.03L629.02 931.03L629.02 931.73L628.32 931.73ZM545.55 214.5L546.25 214.5L546.25 215.2L545.55 215.2ZM347.09 82.71L347.79 82.71L347.79 83.41L347.09 83.41ZM726.18 1183.72L726.88 1183.72L726.88 1184.42L726.18 1184.42ZM161.34 826.81L162.04 826.81L162.04 827.51L161.34 827.51ZM540.44 435.82L541.14 435.82L541.14 436.52L540.44 436.52ZM24.03 421.85L24.73 421.85L24.73 422.55L24.03 422.55ZM28.27 997.61L28.97 997.61L28.97 998.31L28.27 998.31ZM235.86 369.92L236.56 369.92L236.56 370.62L235.86 370.62ZM602.29 218.2L602.99 218.2L602.99 218.9L602.29 218.9ZM89.08 1187.84L89.78 1187.84L89.78 1188.54L89.08 1188.54ZM214.86 731.48L215.56 731.48L215.56 732.18L214.86 732.18ZM331.65 1073.93L332.35 1073.93L332.35 1074.63L331.65 1074.63ZM163.95 1030.13L164.65 1030.13L164.65 1030.83L163.95 1030.83ZM129.91 914.43L130.61 914.43L130.61 915.13L129.91 915.13ZM789.41 445.51L790.11 445.51L790.11 446.21L789.41 446.21ZM789.2 1190.51L789.9 1190.51L789.9 1191.21L789.2 1191.21ZM122.32 357.42L123.02 357.42L123.02 358.12L122.32 358.12ZM170.8 18.35L171.5 18.35L171.5 19.05L170.8 19.05ZM332.32 443.32L333.02 443.32L333.02 444.02L332.32 444.02ZM495.47 392.34L496.17 392.34L496.17 393.04L495.47 393.04ZM476.02 966.07L476.72 966.07L476.72 966.77L476.02 966.77ZM400.17 626.57L400.87 626.57L400.87 627.27L400.17 627.27ZM657.58 143.17L658.28 143.17L658.28 143.87L657.58 143.87ZM138.73 269.51L139.43 269.51L139.43 270.21L138.73 270.21ZM416.62 1137.84L417.32 1137.84L417.32 1138.54L416.62 1138.54ZM42.36 854.4L43.06 854.4L43.06 855.1L42.36 855.1ZM736.8 1179.81L737.5 1179.81L737.5 1180.51L736.8 1180.51ZM684.19 460.2L684.89 460.2L684.89 460.9L684.19 460.9ZM492.23 564.72L492.93 564.72L492.93 565.42L492.23 565.42ZM764.9 413.24L765.6 413.24L765.6 413.94L764.9 413.94ZM651.2 434.36L651.9 434.36L651.9 435.06L651.2 435.06ZM563.29 263.58L563.99 263.58L563.99 264.28L563.29 264.28ZM241.62 552.59L242.32 552.59L242.32 553.29L241.62 553.29ZM38.06 53.67L38.76 53.67L38.76 54.37L38.06 54.37ZM570.67 623.5L571.37 623.5L571.37 624.2L570.67 624.2ZM120.54 785.32L121.24 785.32L121.24 786.02L120.54 786.02ZM133.19 167.04L133.89 167.04L133.89 167.74L133.19 167.74ZM433.59 386L434.29 386L434.29 386.7L433.59 386.7ZM121.76 39.48L122.46 39.48L122.46 40.18L121.76 40.18ZM161.75 1174.92L162.45 1174.92L162.45 1175.62L161.75 1175.62ZM328.06 536.58L328.76 536.58L328.76 537.28L328.06 537.28ZM447.49 1035.9L448.19 1035.9L448.19 1036.6L447.49 1036.6ZM98.09 436.51L98.79 436.51L98.79 437.21L98.09 437.21ZM653.03 453.38L653.73 453.38L653.73 454.08L653.03 454.08ZM525.18 752.92L525.88 752.92L525.88 753.62L525.18 753.62ZM649.4 182.7L650.1 182.7L650.1 183.4L649.4 183.4ZM164.27 733.09L164.97 733.09L164.97 733.79L164.27 733.79ZM385.16 971.64L385.86 971.64L385.86 972.34L385.16 972.34ZM673.4 200.42L674.1 200.42L674.1 201.12L673.4 201.12ZM152.16 322.08L152.86 322.08L152.86 322.78L152.16 322.78ZM617.29 634.31L617.99 634.31L617.99 635.01L617.29 635.01ZM671.48 216.66L672.18 216.66L672.18 217.36L671.48 217.36ZM5.95 286.99L6.65 286.99L6.65 287.69L5.95 287.69ZM198.91 1092.02L199.61 1092.02L199.61 1092.72L198.91 1092.72ZM75.88 375.95L76.58 375.95L76.58 376.65L75.88 376.65ZM455.77 1171.36L456.47 1171.36L456.47 1172.06L455.77 1172.06ZM387.95 890.86L388.65 890.86L388.65 891.56L387.95 891.56ZM273.61 1145.85L274.31 1145.85L274.31 1146.55L273.61 1146.55ZM555.57 50.37L556.27 50.37L556.27 51.07L555.57 51.07ZM355.39 630.95L356.09 630.95L356.09 631.65L355.39 631.65ZM402.77 1047.03L403.47 1047.03L403.47 1047.73L402.77 1047.73ZM584.16 814.1L584.86 814.1L584.86 814.8L584.16 814.8ZM425.69 70.02L426.39 70.02L426.39 70.72L425.69 70.72ZM689.42 24.61L690.12 24.61L690.12 25.31L689.42 25.31ZM462.37 650.88L463.07 650.88L463.07 651.58L462.37 651.58ZM679.47 1028.47L680.17 1028.47L680.17 1029.17L679.47 1029.17ZM391.97 975.1L392.67 975.1L392.67 975.8L391.97 975.8ZM288.28 617.98L288.98 617.98L288.98 618.68L288.28 618.68ZM410.61 282.32L411.31 282.32L411.31 283.02L410.61 283.02ZM219.7 1182.91L220.4 1182.91L220.4 1183.61L219.7 1183.61ZM186.21 5.22L186.91 5.22L186.91 5.92L186.21 5.92ZM504 917.53L504.7 917.53L504.7 918.23L504 918.23ZM737.65 70.45L738.35 70.45L738.35 71.15L737.65 71.15ZM596.7 1135.53L597.4 1135.53L597.4 1136.23L596.7 1136.23ZM772.81 275.13L773.51 275.13L773.51 275.83L772.81 275.83ZM131.62 522.94L132.32 522.94L132.32 523.64L131.62 523.64ZM229.21 816.48L229.91 816.48L229.91 817.18L229.21 817.18ZM605.9 1013.07L606.6 1013.07L606.6 1013.77L605.9 1013.77ZM738.38 24.8L739.08 24.8L739.08 25.5L738.38 25.5ZM101.54 179.55L102.24 179.55L102.24 180.25L101.54 180.25ZM668.97 943.56L669.67 943.56L669.67 944.26L668.97 944.26ZM340.22 882.29L340.92 882.29L340.92 882.99L340.22 882.99ZM363.96 502.05L364.66 502.05L364.66 502.75L363.96 502.75ZM197.69 693.77L198.39 693.77L198.39 694.47L197.69 694.47ZM465.79 28.95L466.49 28.95L466.49 29.65L465.79 29.65ZM471.03 221.75L471.73 221.75L471.73 222.45L471.03 222.45ZM711.52 886.72L712.22 886.72L712.22 887.42L711.52 887.42ZM15.21 270.06L15.91 270.06L15.91 270.76L15.21 270.76ZM671.52 728.51L672.22 728.51L672.22 729.21L671.52 729.21ZM356.38 892.34L357.08 892.34L357.08 893.04L356.38 893.04ZM59.66 645.08L60.36 645.08L60.36 645.78L59.66 645.78ZM400.84 158.51L401.54 158.51L401.54 159.21L400.84 159.21ZM254.07 520.53L254.77 520.53L254.77 521.23L254.07 521.23ZM377.24 1149.98L377.94 1149.98L377.94 1150.68L377.24 1150.68ZM98.18 1107.59L98.88 1107.59L98.88 1108.29L98.18 1108.29ZM359.38 1.97L360.08 1.97L360.08 2.67L359.38 2.67ZM653.48 1157.98L654.18 1157.98L654.18 1158.68L653.48 1158.68ZM422.98 1194.93L423.68 1194.93L423.68 1195.63L422.98 1195.63ZM450.46 1121.63L451.16 1121.63L451.16 1122.33L450.46 1122.33ZM545.4 843.39L546.1 843.39L546.1 844.09L545.4 844.09ZM627.26 474.91L627.96 474.91L627.96 475.61L627.26 475.61ZM523.4 1031.4L524.1 1031.4L524.1 1032.1L523.4 1032.1ZM643.27 405.22L643.97 405.22L643.97 405.92L643.27 405.92ZM582.11 525.09L582.81 525.09L582.81 525.79L582.11 525.79ZM419.85 995.18L420.55 995.18L420.55 995.88L419.85 995.88ZM70.24 702.87L70.94 702.87L70.94 703.57L70.24 703.57ZM501.93 625.69L502.63 625.69L502.63 626.39L501.93 626.39ZM13.27 552.44L13.97 552.44L13.97 553.14L13.27 553.14ZM100.56 27.79L101.26 27.79L101.26 28.49L100.56 28.49ZM519.9 1107.52L520.6 1107.52L520.6 1108.22L519.9 1108.22ZM442.43 861.37L443.13 861.37L443.13 862.07L442.43 862.07ZM24.47 1113.74L25.17 1113.74L25.17 1114.44L24.47 1114.44ZM784.47 521.78L785.17 521.78L785.17 522.48L784.47 522.48ZM204.38 432.07L205.08 432.07L205.08 432.77L204.38 432.77ZM770.45 307.78L771.15 307.78L771.15 308.48L770.45 308.48ZM327.37 766.57L328.07 766.57L328.07 767.27L327.37 767.27ZM408.16 1116.33L408.86 1116.33L408.86 1117.03L408.16 1117.03ZM717.51 164.45L718.21 164.45L718.21 165.15L717.51 165.15ZM492.1 143.13L492.8 143.13L492.8 143.83L492.1 143.83ZM490.78 86.77L491.48 86.77L491.48 87.47L490.78 87.47ZM692.07 874.73L692.77 874.73L692.77 875.43L692.07 875.43ZM709.89 1060.21L710.59 1060.21L710.59 1060.91L709.89 1060.91ZM598.07 1103.3L598.77 1103.3L598.77 1104L598.07 1104ZM503.19 982.93L503.89 982.93L503.89 983.63L503.19 983.63ZM638.7 151.86L639.4 151.86L639.4 152.56L638.7 152.56ZM458.64 546.42L459.34 546.42L459.34 547.12L458.64 547.12ZM497.74 922.95L498.44 922.95L498.44 923.65L497.74 923.65ZM438.73 237.15L439.43 237.15L439.43 237.85L438.73 237.85ZM241.13 655.2L241.83 655.2L241.83 655.9L241.13 655.9ZM44.36 526.84L45.06 526.84L45.06 527.54L44.36 527.54ZM5.42 144.34L6.12 144.34L6.12 145.04L5.42 145.04ZM28.33 1042.68L29.03 1042.68L29.03 1043.38L28.33 1043.38ZM406.39 314.73L407.09 314.73L407.09 315.43L406.39 315.43ZM323.43 38.2L324.13 38.2L324.13 38.9L323.43 38.9ZM524.7 696.3L525.4 696.3L525.4 697L524.7 697ZM151.31 100.16L152.01 100.16L152.01 100.86L151.31 100.86ZM7.54 956.3L8.24 956.3L8.24 957L7.54 957ZM488.61 174.8L489.31 174.8L489.31 175.5L488.61 175.5ZM760.43 88.87L761.13 88.87L761.13 89.57L760.43 89.57ZM210.97 101.84L211.67 101.84L211.67 102.54L210.97 102.54ZM446.63 401.62L447.33 401.62L447.33 402.32L446.63 402.32ZM264.72 218.29L265.42 218.29L265.42 218.99L264.72 218.99ZM463.33 1167.1L464.03 1167.1L464.03 1167.8L463.33 1167.8ZM580.49 776.05L581.19 776.05L581.19 776.75L580.49 776.75ZM10.15 291.21L10.85 291.21L10.85 291.91L10.15 291.91ZM124.14 19.74L124.84 19.74L124.84 20.44L124.14 20.44ZM84.71 964.52L85.41 964.52L85.41 965.22L84.71 965.22ZM50.07 618.35L50.77 618.35L50.77 619.05L50.07 619.05ZM589.05 1143.27L589.75 1143.27L589.75 1143.97L589.05 1143.97ZM358.38 302.15L359.08 302.15L359.08 302.85L358.38 302.85ZM343.52 26.88L344.22 26.88L344.22 27.58L343.52 27.58ZM247.62 248.44L248.32 248.44L248.32 249.14L247.62 249.14ZM796.72 813.99L797.42 813.99L797.42 814.69L796.72 814.69ZM626.04 251.68L626.74 251.68L626.74 252.38L626.04 252.38ZM143.23 1078.41L143.93 1078.41L143.93 1079.11L143.23 1079.11ZM195.08 355.03L195.78 355.03L195.78 355.73L195.08 355.73ZM0.1 577.15L0.8 577.15L0.8 577.85L0.1 577.85ZM44.74 715.9L45.44 715.9L45.44 716.6L44.74 716.6ZM708.65 897.45L709.35 897.45L709.35 898.15L708.65 898.15ZM282.59 675.04L283.29 675.04L283.29 675.74L282.59 675.74ZM279.69 352.97L280.39 352.97L280.39 353.67L279.69 353.67ZM361.06 777.21L361.76 777.21L361.76 777.91L361.06 777.91ZM33.26 1065.48L33.96 1065.48L33.96 1066.18L33.26 1066.18ZM292.34 28.45L293.04 28.45L293.04 29.15L292.34 29.15ZM47.18 101.63L47.88 101.63L47.88 102.33L47.18 102.33ZM625.29 778.68L625.99 778.68L625.99 779.38L625.29 779.38ZM68.22 1113.21L68.92 1113.21L68.92 1113.91L68.22 1113.91ZM760.27 89.38L760.97 89.38L760.97 90.08L760.27 90.08ZM408 1130.27L408.7 1130.27L408.7 1130.97L408 1130.97ZM591.49 821.41L592.19 821.41L592.19 822.11L591.49 822.11ZM536.96 1055.34L537.66 1055.34L537.66 1056.04L536.96 1056.04ZM721.16 766.63L721.86 766.63L721.86 767.33L721.16 767.33ZM352.09 615.95L352.79 615.95L352.79 616.65L352.09 616.65ZM772.77 732.72L773.47 732.72L773.47 733.42L772.77 733.42ZM757.46 88.21L758.16 88.21L758.16 88.91L757.46 88.91ZM677.18 419.11L677.88 419.11L677.88 419.81L677.18 419.81ZM255.19 332.23L255.89 332.23L255.89 332.93L255.19 332.93ZM40.29 439.98L40.99 439.98L40.99 440.68L40.29 440.68ZM299.65 971.9L300.35 971.9L300.35 972.6L299.65 972.6ZM414.77 715.38L415.47 715.38L415.47 716.08L414.77 716.08ZM286.26 81.23L286.96 81.23L286.96 81.93L286.26 81.93ZM689.41 1180.19L690.11 1180.19L690.11 1180.89L689.41 1180.89ZM609.54 644.9L610.24 644.9L610.24 645.6L609.54 645.6ZM689.53 475.29L690.23 475.29L690.23 475.99L689.53 475.99ZM684.88 96.97L685.58 96.97L685.58 97.67L684.88 97.67ZM637.7 146.95L638.4 146.95L638.4 147.65L637.7 147.65ZM589.51 692.56L590.21 692.56L590.21 693.26L589.51 693.26ZM297.32 934.35L298.02 934.35L298.02 935.05L297.32 935.05ZM185.85 478.26L186.55 478.26L186.55 478.96L185.85 478.96ZM491.68 1035.53L492.38 1035.53L492.38 1036.23L491.68 1036.23ZM167.07 540.96L167.77 540.96L167.77 541.66L167.07 541.66ZM219.49 721.74L220.19 721.74L220.19 722.44L219.49 722.44ZM526.97 996.44L527.67 996.44L527.67 997.14L526.97 997.14ZM366.18 400.33L366.88 400.33L366.88 401.03L366.18 401.03ZM261.6 829.42L262.3 829.42L262.3 830.12L261.6 830.12ZM278.15 589.51L278.85 589.51L278.85 590.21L278.15 590.21ZM256.14 587.98L256.84 587.98L256.84 588.68L256.14 588.68ZM284.48 425.18L285.18 425.18L285.18 425.88L284.48 425.88ZM624.74 546.96L625.44 546.96L625.44 547.66L624.74 547.66ZM280.1 106.98L280.8 106.98L280.8 107.68L280.1 107.68ZM54.64 21.13L55.34 21.13L55.34 21.83L54.64 21.83ZM655.74 109.35L656.44 109.35L656.44 110.05L655.74 110.05ZM498.28 755.12L498.98 755.12L498.98 755.82L498.28 755.82ZM598.31 995.88L599.01 995.88L599.01 996.58L598.31 996.58ZM593.22 708.85L593.92 708.85L593.92 709.55L593.22 709.55ZM633.75 91.09L634.45 91.09L634.45 91.79L633.75 91.79ZM575.08 958.25L575.78 958.25L575.78 958.95L575.08 958.95ZM569.07 433.89L569.77 433.89L569.77 434.59L569.07 434.59ZM306.35 89.08L307.05 89.08L307.05 89.78L306.35 89.78ZM670.87 395.97L671.57 395.97L671.57 396.67L670.87 396.67ZM152.92 977.11L153.62 977.11L153.62 977.81L152.92 977.81ZM648.88 299L649.58 299L649.58 299.7L648.88 299.7ZM448.28 902.59L448.98 902.59L448.98 903.29L448.28 903.29ZM542.57 1051.07L543.27 1051.07L543.27 1051.77L542.57 1051.77ZM317.97 51.69L318.67 51.69L318.67 52.39L317.97 52.39ZM791.29 889.09L791.99 889.09L791.99 889.79L791.29 889.79ZM420.83 486.24L421.53 486.24L421.53 486.94L420.83 486.94ZM702.78 845.55L703.48 845.55L703.48 846.25L702.78 846.25ZM229.83 424.14L230.53 424.14L230.53 424.84L229.83 424.84ZM559.58 635.81L560.28 635.81L560.28 636.51L559.58 636.51ZM609.8 408.24L610.5 408.24L610.5 408.94L609.8 408.94ZM222.47 821.21L223.17 821.21L223.17 821.91L222.47 821.91ZM718 387.8L718.7 387.8L718.7 388.5L718 388.5ZM198.01 964.07L198.71 964.07L198.71 964.77L198.01 964.77ZM407.92 740.22L408.62 740.22L408.62 740.92L407.92 740.92ZM598.4 587.13L599.1 587.13L599.1 587.83L598.4 587.83ZM580.37 927.26L581.07 927.26L581.07 927.96L580.37 927.96ZM177.87 1059.61L178.57 1059.61L178.57 1060.31L177.87 1060.31ZM647.5 575.19L648.2 575.19L648.2 575.89L647.5 575.89Z" fill="rgba(64,51,39,0.02)"/></g></defs><path fill="#f1e8d5" d="M0 0h800v1200H0Z"/><use href="#art" x="-800" y="-1200"/><use href="#art" x="0" y="-1200"/><use href="#art" x="800" y="-1200"/><use href="#art" x="-800" y="0"/><use href="#art" x="0" y="0"/><use href="#art" x="800" y="0"/><use href="#art" x="-800" y="1200"/><use href="#art" x="0" y="1200"/><use href="#art" x="800" y="1200"/></svg>
