<svg xmlns="http://www.w3.org/2000/svg" width="312" height="312" viewBox="0 0 312 312"><rect x="107" y="107" width="46" height="46" fill="none" stroke="#000" stroke-opacity="0.95" stroke-width="1.6"/><rect x="123" y="123" width="14" height="14" fill="#000" fill-opacity="0.95"/><rect x="237" y="237" width="46" height="46" fill="none" stroke="#000" stroke-opacity="0.95" stroke-width="1.6"/><rect x="253" y="253" width="14" height="14" fill="#000" fill-opacity="0.95"/><rect x="107" y="211" width="46" height="46" fill="none" stroke="#000" stroke-opacity="0.95" stroke-width="1.6"/><rect x="123" y="227" width="14" height="14" fill="#000" fill-opacity="0.95"/><rect x="81" y="159" width="46" height="46" fill="none" stroke="#000" stroke-opacity="0.95" stroke-width="1.6"/><rect x="97" y="175" width="14" height="14" fill="#000" fill-opacity="0.95"/><rect x="29" y="263" width="46" height="46" fill="none" stroke="#000" stroke-opacity="0.95" stroke-width="1.6"/><rect x="45" y="279" width="14" height="14" fill="#000" fill-opacity="0.95"/><rect x="159" y="237" width="46" height="46" fill="none" stroke="#000" stroke-opacity="0.95" stroke-width="1.6"/><rect x="175" y="253" width="14" height="14" fill="#000" fill-opacity="0.95"/><rect x="141" y="63" width="30" height="30" fill="none" stroke="#000" stroke-opacity="0.95" stroke-width="1.6"/><path d="M263 7H283M263 13H283M263 19H283" fill="none" stroke="#000" stroke-opacity="0.95" stroke-width="1.6"/><rect x="289" y="3" width="20" height="20" fill="none" stroke="#000" stroke-opacity="0.95" stroke-width="1.6"/><rect x="294" y="8" width="10" height="10" fill="none" stroke="#000" stroke-opacity="0.95" stroke-width="1.6"/><rect x="56" y="30" width="7" height="7" fill="#000" fill-opacity="0.95"/><rect x="67" y="30" width="7" height="7" fill="none" stroke="#000" stroke-opacity="0.95" stroke-width="1.6"/><rect x="56" y="41" width="7" height="7" fill="none" stroke="#000" stroke-opacity="0.95" stroke-width="1.6"/><rect x="67" y="41" width="7" height="7" fill="#000" fill-opacity="0.95"/><rect x="107" y="29" width="20" height="20" fill="none" stroke="#000" stroke-opacity="0.95" stroke-width="1.6"/><rect x="112" y="34" width="10" height="10" fill="none" stroke="#000" stroke-opacity="0.95" stroke-width="1.6"/><path d="M137 29V49M143 29V49M149 29V49" fill="none" stroke="#000" stroke-opacity="0.95" stroke-width="1.6"/><rect x="263" y="29" width="20" height="20" fill="none" stroke="#000" stroke-opacity="0.95" stroke-width="1.6"/><rect x="268" y="34" width="10" height="10" fill="none" stroke="#000" stroke-opacity="0.95" stroke-width="1.6"/><path d="M111 55V75M117 55V75M123 55V75" fill="none" stroke="#000" stroke-opacity="0.95" stroke-width="1.6"/><rect x="290" y="56" width="7" height="7" fill="#000" fill-opacity="0.95"/><rect x="301" y="56" width="7" height="7" fill="none" stroke="#000" stroke-opacity="0.95" stroke-width="1.6"/><rect x="290" y="67" width="7" height="7" fill="none" stroke="#000" stroke-opacity="0.95" stroke-width="1.6"/><rect x="301" y="67" width="7" height="7" fill="#000" fill-opacity="0.95"/><rect x="56" y="82" width="7" height="7" fill="#000" fill-opacity="0.95"/><rect x="67" y="82" width="7" height="7" fill="none" stroke="#000" stroke-opacity="0.95" stroke-width="1.6"/><rect x="56" y="93" width="7" height="7" fill="none" stroke="#000" stroke-opacity="0.95" stroke-width="1.6"/><rect x="67" y="93" width="7" height="7" fill="#000" fill-opacity="0.95"/><rect x="82" y="82" width="7" height="7" fill="#000" fill-opacity="0.95"/><rect x="93" y="82" width="7" height="7" fill="none" stroke="#000" stroke-opacity="0.95" stroke-width="1.6"/><rect x="82" y="93" width="7" height="7" fill="none" stroke="#000" stroke-opacity="0.95" stroke-width="1.6"/><rect x="93" y="93" width="7" height="7" fill="#000" fill-opacity="0.95"/><rect x="108" y="82" width="7" height="7" fill="#000" fill-opacity="0.95"/><rect x="119" y="82" width="7" height="7" fill="none" stroke="#000" stroke-opacity="0.95" stroke-width="1.6"/><rect x="108" y="93" width="7" height="7" fill="none" stroke="#000" stroke-opacity="0.95" stroke-width="1.6"/><rect x="119" y="93" width="7" height="7" fill="#000" fill-opacity="0.95"/><rect x="4" y="108" width="7" height="7" fill="#000" fill-opacity="0.95"/><rect x="15" y="108" width="7" height="7" fill="none" stroke="#000" stroke-opacity="0.95" stroke-width="1.6"/><rect x="4" y="119" width="7" height="7" fill="none" stroke="#000" stroke-opacity="0.95" stroke-width="1.6"/><rect x="15" y="119" width="7" height="7" fill="#000" fill-opacity="0.95"/><path d="M211 127V107H231M216 127V112H231" fill="none" stroke="#000" stroke-opacity="0.95" stroke-width="1.6"/><rect x="264" y="108" width="7" height="7" fill="#000" fill-opacity="0.95"/><rect x="275" y="108" width="7" height="7" fill="none" stroke="#000" stroke-opacity="0.95" stroke-width="1.6"/><rect x="264" y="119" width="7" height="7" fill="none" stroke="#000" stroke-opacity="0.95" stroke-width="1.6"/><rect x="275" y="119" width="7" height="7" fill="#000" fill-opacity="0.95"/><path d="M81 137H101M81 143H101M81 149H101" fill="none" stroke="#000" stroke-opacity="0.95" stroke-width="1.6"/><path d="M159 153V133H179M164 153V138H179" fill="none" stroke="#000" stroke-opacity="0.95" stroke-width="1.6"/><path d="M289 153V133H309M294 153V138H309" fill="none" stroke="#000" stroke-opacity="0.95" stroke-width="1.6"/><path d="M267 159V179M273 159V179M279 159V179" fill="none" stroke="#000" stroke-opacity="0.95" stroke-width="1.6"/><path d="M59 185V205M65 185V205M71 185V205" fill="none" stroke="#000" stroke-opacity="0.95" stroke-width="1.6"/><rect x="212" y="186" width="7" height="7" fill="#000" fill-opacity="0.95"/><rect x="223" y="186" width="7" height="7" fill="none" stroke="#000" stroke-opacity="0.95" stroke-width="1.6"/><rect x="212" y="197" width="7" height="7" fill="none" stroke="#000" stroke-opacity="0.95" stroke-width="1.6"/><rect x="223" y="197" width="7" height="7" fill="#000" fill-opacity="0.95"/><path d="M3 241H23M3 247H23M3 253H23" fill="none" stroke="#000" stroke-opacity="0.95" stroke-width="1.6"/><path d="M29 241H49M29 247H49M29 253H49" fill="none" stroke="#000" stroke-opacity="0.95" stroke-width="1.6"/><rect x="289" y="237" width="20" height="20" fill="none" stroke="#000" stroke-opacity="0.95" stroke-width="1.6"/><rect x="296" y="244" width="6" height="6" fill="#000" fill-opacity="0.95"/><rect x="133" y="263" width="20" height="20" fill="none" stroke="#000" stroke-opacity="0.95" stroke-width="1.6"/><rect x="140" y="270" width="6" height="6" fill="#000" fill-opacity="0.95"/><rect x="289" y="263" width="20" height="20" fill="none" stroke="#000" stroke-opacity="0.95" stroke-width="1.6"/><rect x="294" y="268" width="10" height="10" fill="none" stroke="#000" stroke-opacity="0.95" stroke-width="1.6"/><path d="M91 289L101 299L91 309L81 299z" fill="none" stroke="#000" stroke-opacity="0.95" stroke-width="1.6"/><rect x="88.5" y="296.5" width="5" height="5" fill="#000" fill-opacity="0.95"/><path d="M107 293H127M107 299H127M107 305H127" fill="none" stroke="#000" stroke-opacity="0.95" stroke-width="1.6"/><rect x="159" y="289" width="20" height="20" fill="none" stroke="#000" stroke-opacity="0.95" stroke-width="1.6"/><rect x="164" y="294" width="10" height="10" fill="none" stroke="#000" stroke-opacity="0.95" stroke-width="1.6"/></svg>