<svg xmlns="http://www.w3.org/2000/svg" width="320" height="320" viewBox="0 0 320 320"><path d="M194.5 144.1L222.3 139.6" stroke="#000" stroke-opacity="0.9" stroke-width="1.2" stroke-dasharray="3 2.5"/><path d="M218.1 51.5L235 28.4" stroke="#000" stroke-opacity="0.9" stroke-width="1.2" stroke-dasharray="3 2.5"/><path d="M218.1 51.5L248 56" stroke="#000" stroke-opacity="0.9" stroke-width="1.2" stroke-dasharray="3 2.5"/><path d="M57.1 88.4L36.4 70.8" stroke="#000" stroke-opacity="0.9" stroke-width="1.2" stroke-dasharray="3 2.5"/><path d="M126.7 120.6L124.5 148" stroke="#000" stroke-opacity="0.9" stroke-width="1.2" stroke-dasharray="3 2.5"/><path d="M186.4 40.8L178.3 14.3" stroke="#000" stroke-opacity="0.9" stroke-width="1.2" stroke-dasharray="3 2.5"/><path d="M80.5 18L100.3 -0.4" stroke="#000" stroke-opacity="0.9" stroke-width="1.2" stroke-dasharray="3 2.5"/><path d="M80.5 338L100.3 319.6" stroke="#000" stroke-opacity="0.9" stroke-width="1.2" stroke-dasharray="3 2.5"/><path d="M80.5 18L51.3 37.9" stroke="#000" stroke-opacity="0.9" stroke-width="1.2" stroke-dasharray="3 2.5"/><path d="M237.1 -7.1L235 28.4" stroke="#000" stroke-opacity="0.9" stroke-width="1.2" stroke-dasharray="3 2.5"/><path d="M237.1 312.9L235 348.4" stroke="#000" stroke-opacity="0.9" stroke-width="1.2" stroke-dasharray="3 2.5"/><path d="M237.9 111.1L213.2 110.8" stroke="#000" stroke-opacity="0.9" stroke-width="1.2" stroke-dasharray="3 2.5"/><path d="M237.9 111.1L245.9 80.9" stroke="#000" stroke-opacity="0.9" stroke-width="1.2" stroke-dasharray="3 2.5"/><path d="M237.9 111.1L222.3 139.6" stroke="#000" stroke-opacity="0.9" stroke-width="1.2" stroke-dasharray="3 2.5"/><path d="M237.9 111.1L270.6 94.3" stroke="#000" stroke-opacity="0.9" stroke-width="1.2" stroke-dasharray="3 2.5"/><path d="M237.9 111.1L257.7 142.9" stroke="#000" stroke-opacity="0.9" stroke-width="1.2" stroke-dasharray="3 2.5"/><path d="M123.1 8.1L120.8 -20.1" stroke="#000" stroke-opacity="0.9" stroke-width="1.2" stroke-dasharray="3 2.5"/><path d="M123.1 328.1L120.8 299.9" stroke="#000" stroke-opacity="0.9" stroke-width="1.2" stroke-dasharray="3 2.5"/><path d="M235 28.4L248 56" stroke="#000" stroke-opacity="0.9" stroke-width="1.2" stroke-dasharray="3 2.5"/><path d="M235 28.4L206.1 14.4" stroke="#000" stroke-opacity="0.9" stroke-width="1.2" stroke-dasharray="3 2.5"/><path d="M206.1 14.4L178.3 14.3" stroke="#000" stroke-opacity="0.9" stroke-width="1.2" stroke-dasharray="3 2.5"/><path d="M206.1 334.4L178.3 334.3" stroke="#000" stroke-opacity="0.9" stroke-width="1.2" stroke-dasharray="3 2.5"/><path d="M111.3 269.6L120.8 299.9" stroke="#000" stroke-opacity="0.9" stroke-width="1.2" stroke-dasharray="3 2.5"/><path d="M40.2 118.1L16 123.9" stroke="#000" stroke-opacity="0.9" stroke-width="1.2" stroke-dasharray="3 2.5"/><path d="M2.8 281.8L-12 313.1" stroke="#000" stroke-opacity="0.9" stroke-width="1.2" stroke-dasharray="3 2.5"/><path d="M322.8 281.8L308 313.1" stroke="#000" stroke-opacity="0.9" stroke-width="1.2" stroke-dasharray="3 2.5"/><path d="M30.2 208.6L44.9 233.9" stroke="#000" stroke-opacity="0.9" stroke-width="1.2" stroke-dasharray="3 2.5"/><path d="M22.8 91.7L16 123.9" stroke="#000" stroke-opacity="0.9" stroke-width="1.2" stroke-dasharray="3 2.5"/><path d="M-0.8 196.1L-15 220.1" stroke="#000" stroke-opacity="0.9" stroke-width="1.2" stroke-dasharray="3 2.5"/><path d="M319.2 196.1L305 220.1" stroke="#000" stroke-opacity="0.9" stroke-width="1.2" stroke-dasharray="3 2.5"/><path d="M133.5 170.5L106.3 175.4" stroke="#000" stroke-opacity="0.9" stroke-width="1.2" stroke-dasharray="3 2.5"/><path d="M245.9 80.9L248 56" stroke="#000" stroke-opacity="0.9" stroke-width="1.2" stroke-dasharray="3 2.5"/><path d="M124.5 148L106.3 175.4" stroke="#000" stroke-opacity="0.9" stroke-width="1.2" stroke-dasharray="3 2.5"/><path d="M195.3 -8.3L178.3 14.3" stroke="#000" stroke-opacity="0.9" stroke-width="1.2" stroke-dasharray="3 2.5"/><path d="M195.3 311.7L178.3 334.3" stroke="#000" stroke-opacity="0.9" stroke-width="1.2" stroke-dasharray="3 2.5"/><path d="M222.3 139.6L215.1 168.1" stroke="#000" stroke-opacity="0.9" stroke-width="1.2" stroke-dasharray="3 2.5"/><path d="M222.3 139.6L213.2 110.8" stroke="#000" stroke-opacity="0.9" stroke-width="1.2" stroke-dasharray="3 2.5"/><path d="M222.3 139.6L257.7 142.9" stroke="#000" stroke-opacity="0.9" stroke-width="1.2" stroke-dasharray="3 2.5"/><path d="M44.9 233.9L74.7 232.3" stroke="#000" stroke-opacity="0.9" stroke-width="1.2" stroke-dasharray="3 2.5"/><path d="M305 220.1L283.8 235.8" stroke="#000" stroke-opacity="0.9" stroke-width="1.2" stroke-dasharray="3 2.5"/><path d="M305 220.1L272.9 201.6" stroke="#000" stroke-opacity="0.9" stroke-width="1.2" stroke-dasharray="3 2.5"/><path d="M178.3 14.3L176.2 -25.4" stroke="#000" stroke-opacity="0.9" stroke-width="1.2" stroke-dasharray="3 2.5"/><path d="M178.3 334.3L176.2 294.6" stroke="#000" stroke-opacity="0.9" stroke-width="1.2" stroke-dasharray="3 2.5"/><path d="M36.4 70.8L51.3 37.9" stroke="#000" stroke-opacity="0.9" stroke-width="1.2" stroke-dasharray="3 2.5"/><path d="M36.4 70.8L72.5 65.4" stroke="#000" stroke-opacity="0.9" stroke-width="1.2" stroke-dasharray="3 2.5"/><circle cx="80.5" cy="18" r="13" fill="none" stroke="#000" stroke-opacity="0.35" stroke-width="0.8"/><circle cx="80.5" cy="18" r="6" fill="none" stroke="#000" stroke-width="1.2"/><circle cx="80.5" cy="18" r="2.8" fill="#000"/><circle cx="237.9" cy="111.1" r="13" fill="none" stroke="#000" stroke-opacity="0.35" stroke-width="0.8"/><circle cx="237.9" cy="111.1" r="6" fill="none" stroke="#000" stroke-width="1.2"/><circle cx="237.9" cy="111.1" r="2.8" fill="#000"/><circle cx="235" cy="28.4" r="13" fill="none" stroke="#000" stroke-opacity="0.35" stroke-width="0.8"/><circle cx="235" cy="28.4" r="6" fill="none" stroke="#000" stroke-width="1.2"/><circle cx="235" cy="28.4" r="2.8" fill="#000"/><circle cx="40.2" cy="118.1" r="13" fill="none" stroke="#000" stroke-opacity="0.35" stroke-width="0.8"/><circle cx="40.2" cy="118.1" r="6" fill="none" stroke="#000" stroke-width="1.2"/><circle cx="40.2" cy="118.1" r="2.8" fill="#000"/><circle cx="120.8" cy="299.9" r="13" fill="none" stroke="#000" stroke-opacity="0.35" stroke-width="0.8"/><circle cx="120.8" cy="299.9" r="6" fill="none" stroke="#000" stroke-width="1.2"/><circle cx="120.8" cy="299.9" r="2.8" fill="#000"/><circle cx="2.8" cy="281.8" r="13" fill="none" stroke="#000" stroke-opacity="0.35" stroke-width="0.8"/><circle cx="2.8" cy="281.8" r="6" fill="none" stroke="#000" stroke-width="1.2"/><circle cx="2.8" cy="281.8" r="2.8" fill="#000"/><circle cx="322.8" cy="281.8" r="13" fill="none" stroke="#000" stroke-opacity="0.35" stroke-width="0.8"/><circle cx="322.8" cy="281.8" r="6" fill="none" stroke="#000" stroke-width="1.2"/><circle cx="322.8" cy="281.8" r="2.8" fill="#000"/><circle cx="22.8" cy="91.7" r="13" fill="none" stroke="#000" stroke-opacity="0.35" stroke-width="0.8"/><circle cx="22.8" cy="91.7" r="6" fill="none" stroke="#000" stroke-width="1.2"/><circle cx="22.8" cy="91.7" r="2.8" fill="#000"/><circle cx="133.5" cy="170.5" r="13" fill="none" stroke="#000" stroke-opacity="0.35" stroke-width="0.8"/><circle cx="133.5" cy="170.5" r="6" fill="none" stroke="#000" stroke-width="1.2"/><circle cx="133.5" cy="170.5" r="2.8" fill="#000"/><circle cx="124.5" cy="148" r="13" fill="none" stroke="#000" stroke-opacity="0.35" stroke-width="0.8"/><circle cx="124.5" cy="148" r="6" fill="none" stroke="#000" stroke-width="1.2"/><circle cx="124.5" cy="148" r="2.8" fill="#000"/><circle cx="151.9" cy="130.2" r="13" fill="none" stroke="#000" stroke-opacity="0.35" stroke-width="0.8"/><circle cx="151.9" cy="130.2" r="6" fill="none" stroke="#000" stroke-width="1.2"/><circle cx="151.9" cy="130.2" r="2.8" fill="#000"/><circle cx="222.3" cy="139.6" r="13" fill="none" stroke="#000" stroke-opacity="0.35" stroke-width="0.8"/><circle cx="222.3" cy="139.6" r="6" fill="none" stroke="#000" stroke-width="1.2"/><circle cx="222.3" cy="139.6" r="2.8" fill="#000"/><circle cx="44.9" cy="233.9" r="13" fill="none" stroke="#000" stroke-opacity="0.35" stroke-width="0.8"/><circle cx="44.9" cy="233.9" r="6" fill="none" stroke="#000" stroke-width="1.2"/><circle cx="44.9" cy="233.9" r="2.8" fill="#000"/><circle cx="-15" cy="220.1" r="13" fill="none" stroke="#000" stroke-opacity="0.35" stroke-width="0.8"/><circle cx="-15" cy="220.1" r="6" fill="none" stroke="#000" stroke-width="1.2"/><circle cx="-15" cy="220.1" r="2.8" fill="#000"/><circle cx="305" cy="220.1" r="13" fill="none" stroke="#000" stroke-opacity="0.35" stroke-width="0.8"/><circle cx="305" cy="220.1" r="6" fill="none" stroke="#000" stroke-width="1.2"/><circle cx="305" cy="220.1" r="2.8" fill="#000"/><circle cx="178.3" cy="14.3" r="13" fill="none" stroke="#000" stroke-opacity="0.35" stroke-width="0.8"/><circle cx="178.3" cy="14.3" r="6" fill="none" stroke="#000" stroke-width="1.2"/><circle cx="178.3" cy="14.3" r="2.8" fill="#000"/><circle cx="178.3" cy="334.3" r="13" fill="none" stroke="#000" stroke-opacity="0.35" stroke-width="0.8"/><circle cx="178.3" cy="334.3" r="6" fill="none" stroke="#000" stroke-width="1.2"/><circle cx="178.3" cy="334.3" r="2.8" fill="#000"/><circle cx="36.4" cy="70.8" r="13" fill="none" stroke="#000" stroke-opacity="0.35" stroke-width="0.8"/><circle cx="36.4" cy="70.8" r="6" fill="none" stroke="#000" stroke-width="1.2"/><circle cx="36.4" cy="70.8" r="2.8" fill="#000"/><circle cx="248" cy="56" r="13" fill="none" stroke="#000" stroke-opacity="0.35" stroke-width="0.8"/><circle cx="248" cy="56" r="6" fill="none" stroke="#000" stroke-width="1.2"/><circle cx="248" cy="56" r="2.8" fill="#000"/></svg>